# xmcd CD database file
#
# Track frame offsets:
#	150
#	12479
#	32543
#	46997
#	66945
#	80706
#	97143
#	107985
#	126258
#	145501
#	161544
#	181151
#
# Disc length: 2669 seconds
#
# Revision: 0
# Processed by: cddbd v1.5.2PL0 Copyright (c) Steve Scherf et al.
# Submitted via: CDex 1.51
#
DISCID=a10a6b0c
DTITLE=Giovanni Marradi - Broadway Romance
DYEAR=2000
DGENRE=New Age
TTITLE0=Try To Remember
TTITLE1=Once Upon A Time
TTITLE2=What I Did For Love
TTITLE3=I Do't Know How To Love Him
TTITLE4=Tonight
TTITLE5=If Ever I Would Leave You
TTITLE6=Love Makes The World Go Round
TTITLE7=What Kind Of Fool
TTITLE8=Aquarius
TTITLE9=Phantom Of The Opera Medley
TTITLE10=Climb Every Mountain
TTITLE11=Strangers In Paradise
EXTD=YEAR: 2000
EXTT0=
EXTT1=
EXTT2=
EXTT3=
EXTT4=
EXTT5=
EXTT6=
EXTT7=
EXTT8=
EXTT9=
EXTT10=
EXTT11=
PLAYORDER=
